<?xml version="1.0" encoding="UTF-8" standalone="no"?><!-- Generator: Gravit.io --><svg xmlns="http://www.w3.org/2000/svg" xmlns:xlink="http://www.w3.org/1999/xlink" style="isolation:isolate" viewBox="0 0 820.868 154.361" width="820.868pt" height="154.361pt"><defs><clipPath id="_clipPath_l8d5yw7FrzcfUhZq2Z1LWc8zW1ScwolP"><rect width="820.868" height="154.361"/></clipPath></defs><g clip-path="url(#_clipPath_l8d5yw7FrzcfUhZq2Z1LWc8zW1ScwolP)"><path d=" M 47.433 32.111 L 47.433 32.111 Q 67.156 32.111 79.544 38.713 L 79.544 38.713 L 79.544 38.713 Q 91.932 45.314 91.932 60.147 L 91.932 60.147 L 91.932 93.725 L 91.932 93.725 Q 91.932 96.496 93.236 98.289 L 93.236 98.289 L 93.236 98.289 Q 94.54 100.082 97.148 100.082 L 97.148 100.082 L 103.016 100.082 L 103.016 118.827 L 103.016 118.827 Q 102.527 119.153 100.49 119.886 L 100.49 119.886 L 100.49 119.886 Q 98.452 120.62 94.703 121.354 L 94.703 121.354 L 94.703 121.354 Q 90.954 122.087 86.064 122.087 L 86.064 122.087 L 86.064 122.087 Q 76.61 122.087 70.497 119.235 L 70.497 119.235 L 70.497 119.235 Q 64.385 116.382 62.103 111.329 L 62.103 111.329 L 62.103 111.329 Q 55.909 116.219 48.248 119.153 L 48.248 119.153 L 48.248 119.153 Q 40.587 122.087 30.318 122.087 L 30.318 122.087 L 30.318 122.087 Q 0 122.087 0 97.963 L 0 97.963 L 0 97.963 Q 0 85.412 6.764 78.811 L 6.764 78.811 L 6.764 78.811 Q 13.529 72.209 26.243 69.764 L 26.243 69.764 L 26.243 69.764 Q 38.957 67.319 59.495 67.319 L 59.495 67.319 L 59.495 63.081 L 59.495 63.081 Q 59.495 58.028 55.991 55.42 L 55.991 55.42 L 55.991 55.42 Q 52.486 52.812 46.944 52.812 L 46.944 52.812 L 46.944 52.812 Q 41.891 52.812 38.223 54.605 L 38.223 54.605 L 38.223 54.605 Q 34.556 56.398 34.556 60.31 L 34.556 60.31 L 34.556 60.962 L 2.608 60.962 L 2.608 60.962 Q 2.445 60.147 2.445 58.68 L 2.445 58.68 L 2.445 58.68 Q 2.445 46.455 14.1 39.283 L 14.1 39.283 L 14.1 39.283 Q 25.754 32.111 47.433 32.111 L 47.433 32.111 Z  M 59.495 82.641 L 59.495 82.641 Q 45.64 82.641 39.039 85.657 L 39.039 85.657 L 39.039 85.657 Q 32.437 88.672 32.437 93.725 L 32.437 93.725 L 32.437 93.725 Q 32.437 101.875 43.521 101.875 L 43.521 101.875 L 43.521 101.875 Q 49.878 101.875 54.687 98.452 L 54.687 98.452 L 54.687 98.452 Q 59.495 95.029 59.495 89.976 L 59.495 89.976 L 59.495 82.641 Z  M 147.841 42.054 L 147.841 42.054 Q 157.132 32.111 171.965 32.111 L 171.965 32.111 L 171.965 32.111 Q 189.406 32.111 198.86 43.44 L 198.86 43.44 L 198.86 43.44 Q 208.314 54.768 208.314 76.936 L 208.314 76.936 L 208.314 76.936 Q 208.314 99.267 198.86 110.677 L 198.86 110.677 L 198.86 110.677 Q 189.406 122.087 171.965 122.087 L 171.965 122.087 L 171.965 122.087 Q 154.035 122.087 144.581 107.906 L 144.581 107.906 L 141.81 120.131 L 115.404 120.131 L 115.404 1.956 L 147.841 1.956 L 147.841 42.054 Z  M 161.859 56.072 L 161.859 56.072 Q 154.687 56.072 151.101 61.207 L 151.101 61.207 L 151.101 61.207 Q 147.515 66.341 147.515 74.491 L 147.515 74.491 L 147.515 79.87 L 147.515 79.87 Q 147.515 88.02 151.101 93.073 L 151.101 93.073 L 151.101 93.073 Q 154.687 98.126 161.859 98.126 L 161.859 98.126 L 161.859 98.126 Q 175.877 98.126 175.877 81.5 L 175.877 81.5 L 175.877 72.861 L 175.877 72.861 Q 175.877 56.072 161.859 56.072 L 161.859 56.072 Z  M 264.875 32.111 L 264.875 32.111 Q 282.153 32.111 294.133 38.875 L 294.133 38.875 L 294.133 38.875 Q 306.114 45.64 306.114 59.821 L 306.114 59.821 L 275.959 59.821 L 275.959 59.821 Q 275.959 55.094 271.721 53.138 L 271.721 53.138 L 271.721 53.138 Q 268.787 51.508 264.386 51.508 L 264.386 51.508 L 264.386 51.508 Q 252.65 51.508 252.65 57.05 L 252.65 57.05 L 252.65 57.05 Q 252.65 60.147 256.725 61.451 L 256.725 61.451 L 256.725 61.451 Q 260.8 62.755 270.091 64.222 L 270.091 64.222 L 270.091 64.222 Q 281.501 65.852 289.162 68.052 L 289.162 68.052 L 289.162 68.052 Q 296.823 70.253 302.528 75.877 L 302.528 75.877 L 302.528 75.877 Q 308.233 81.5 308.233 91.606 L 308.233 91.606 L 308.233 91.606 Q 308.233 108.069 295.926 115.078 L 295.926 115.078 L 295.926 115.078 Q 283.62 122.087 263.734 122.087 L 263.734 122.087 L 263.734 122.087 Q 252.324 122.087 242.218 118.909 L 242.218 118.909 L 242.218 118.909 Q 232.112 115.73 225.755 109.047 L 225.755 109.047 L 225.755 109.047 Q 219.398 102.364 219.398 92.095 L 219.398 92.095 L 249.553 92.095 L 249.553 92.747 L 249.553 92.747 Q 249.716 98.289 254.199 100.49 L 254.199 100.49 L 254.199 100.49 Q 258.681 102.69 263.734 102.69 L 263.734 102.69 L 263.734 102.69 Q 277.263 102.69 277.263 96.333 L 277.263 96.333 L 277.263 96.333 Q 277.263 93.073 273.025 91.606 L 273.025 91.606 L 273.025 91.606 Q 268.787 90.139 259.17 88.509 L 259.17 88.509 L 259.17 88.509 Q 247.597 86.553 240.18 84.271 L 240.18 84.271 L 240.18 84.271 Q 232.764 81.989 227.222 76.528 L 227.222 76.528 L 227.222 76.528 Q 221.68 71.068 221.68 61.288 L 221.68 61.288 L 221.68 61.288 Q 221.68 45.477 233.661 38.794 L 233.661 38.794 L 233.661 38.794 Q 245.641 32.111 264.875 32.111 L 264.875 32.111 Z  M 368.054 32.111 L 368.054 32.111 Q 391.689 32.111 404.158 43.195 L 404.158 43.195 L 404.158 43.195 Q 416.628 54.279 416.628 77.099 L 416.628 77.099 L 416.628 82.641 L 352.08 82.641 L 352.08 82.641 Q 352.08 91.932 356.236 96.659 L 356.236 96.659 L 356.236 96.659 Q 360.393 101.386 369.358 101.386 L 369.358 101.386 L 369.358 101.386 Q 377.508 101.386 381.338 97.963 L 381.338 97.963 L 381.338 97.963 Q 385.169 94.54 385.169 88.835 L 385.169 88.835 L 416.628 88.835 L 416.628 88.835 Q 416.628 104.483 404.729 113.285 L 404.729 113.285 L 404.729 113.285 Q 392.83 122.087 370.01 122.087 L 370.01 122.087 L 370.01 122.087 Q 346.049 122.087 332.846 110.922 L 332.846 110.922 L 332.846 110.922 Q 319.643 99.756 319.643 77.099 L 319.643 77.099 L 319.643 77.099 Q 319.643 54.931 332.52 43.521 L 332.52 43.521 L 332.52 43.521 Q 345.397 32.111 368.054 32.111 L 368.054 32.111 Z  M 369.358 52.812 L 369.358 52.812 Q 354.036 52.812 352.243 67.319 L 352.243 67.319 C 356.821 67.319 367.362 67.319 383.865 67.319 L 383.865 67.319 Q 383.865 60.636 380.035 56.724 L 380.035 56.724 L 380.035 56.724 Q 376.204 52.812 369.358 52.812 L 369.358 52.812 Z  M 491.608 32.111 L 491.608 32.111 Q 506.604 32.111 514.102 40.424 L 514.102 40.424 L 514.102 40.424 Q 521.6 48.737 521.6 64.385 L 521.6 64.385 L 521.6 120.131 L 489.163 120.131 L 489.163 68.297 L 489.163 68.297 Q 489.163 62.755 486.311 59.414 L 486.311 59.414 L 486.311 59.414 Q 483.458 56.072 478.242 56.072 L 478.242 56.072 L 478.242 56.072 Q 472.211 56.072 468.462 59.984 L 468.462 59.984 L 468.462 59.984 Q 464.713 63.896 464.713 69.601 L 464.713 69.601 L 464.713 120.131 L 432.276 120.131 L 432.276 34.067 L 458.845 34.067 L 460.964 47.107 L 460.964 47.107 Q 466.017 40.261 474.248 36.186 L 474.248 36.186 L 474.248 36.186 Q 482.48 32.111 491.608 32.111 L 491.608 32.111 Z  M 580.117 34.067 L 598.373 34.067 L 598.373 56.072 L 580.117 56.072 L 580.117 88.835 L 580.117 88.835 Q 580.117 94.703 582.073 97.393 L 582.073 97.393 L 582.073 97.393 Q 584.029 100.082 589.245 100.082 L 589.245 100.082 L 598.373 100.082 L 598.373 119.153 L 598.373 119.153 Q 594.461 120.457 588.267 121.272 L 588.267 121.272 L 588.267 121.272 Q 582.073 122.087 577.509 122.087 L 577.509 122.087 L 577.509 122.087 Q 563.165 122.087 555.423 116.871 L 555.423 116.871 L 555.423 116.871 Q 547.68 111.655 547.68 99.104 L 547.68 99.104 L 547.68 56.072 L 535.618 56.072 L 535.618 34.067 L 548.984 34.067 L 555.993 7.987 L 580.117 7.987 L 580.117 34.067 Z  M 646.947 23.961 L 614.51 23.961 L 614.51 1.956 L 646.947 1.956 L 646.947 23.961 Z  M 646.947 120.131 L 614.51 120.131 L 614.51 34.067 L 646.947 34.067 L 646.947 120.131 Z  M 702.693 0 L 702.693 0 Q 706.279 0 711.658 0.896 L 711.658 0.896 L 711.658 0.896 Q 717.037 1.793 720.297 2.934 L 720.297 2.934 L 720.297 22.005 L 712.799 22.005 L 712.799 22.005 Q 707.583 22.005 705.627 23.961 L 705.627 23.961 L 705.627 23.961 Q 703.671 25.917 703.671 30.644 L 703.671 30.644 L 703.671 34.067 L 720.297 34.067 L 720.297 56.072 L 703.671 56.072 L 703.671 120.131 L 671.234 120.131 L 671.234 56.072 L 659.172 56.072 L 659.172 34.067 L 671.234 34.067 L 671.234 30.481 L 671.234 30.481 Q 671.234 13.855 679.384 6.928 L 679.384 6.928 L 679.384 6.928 Q 687.534 0 702.693 0 L 702.693 0 Z  M 790.224 117.523 L 790.224 117.523 Q 783.541 135.616 773.842 144.989 L 773.842 144.989 L 773.842 144.989 Q 764.144 154.361 746.703 154.361 L 746.703 154.361 L 746.703 154.361 Q 736.108 154.361 727.958 151.427 L 727.958 151.427 L 727.958 132.03 L 740.998 132.03 L 740.998 132.03 Q 753.223 132.03 755.505 120.131 L 755.505 120.131 L 721.275 34.067 L 756.157 34.067 L 772.62 91.28 L 773.761 91.28 L 788.92 34.067 L 820.868 34.067 L 790.224 117.523 Z " fill="rgb(0,0,0)"/><path d=" M 264.875 32.111 L 264.875 32.111 Q 282.153 32.111 294.133 38.875 L 294.133 38.875 L 294.133 38.875 Q 306.114 45.64 306.114 59.821 L 306.114 59.821 L 275.959 59.821 L 275.959 59.821 Q 275.959 55.094 271.721 53.138 L 271.721 53.138 L 271.721 53.138 Q 268.787 51.508 264.386 51.508 L 264.386 51.508 L 264.386 51.508 Q 252.65 51.508 252.65 57.05 L 252.65 57.05 L 252.65 57.05 Q 252.65 60.147 256.725 61.451 L 256.725 61.451 L 256.725 61.451 Q 260.8 62.755 270.091 64.222 L 270.091 64.222 L 270.091 64.222 Q 281.501 65.852 289.162 68.052 L 289.162 68.052 L 289.162 68.052 Q 296.823 70.253 302.528 75.877 L 302.528 75.877 L 302.528 75.877 Q 308.233 81.5 308.233 91.606 L 308.233 91.606 L 308.233 91.606 Q 308.233 108.069 295.926 115.078 L 295.926 115.078 L 295.926 115.078 Q 283.62 122.087 263.734 122.087 L 263.734 122.087 L 263.734 122.087 Q 252.324 122.087 242.218 118.909 L 242.218 118.909 L 242.218 118.909 Q 232.112 115.73 225.755 109.047 L 225.755 109.047 L 225.755 109.047 Q 219.398 102.364 219.398 92.095 L 219.398 92.095 L 249.553 92.095 L 249.553 92.747 L 249.553 92.747 Q 249.716 98.289 254.199 100.49 L 254.199 100.49 L 254.199 100.49 Q 258.681 102.69 263.734 102.69 L 263.734 102.69 L 263.734 102.69 Q 277.263 102.69 277.263 96.333 L 277.263 96.333 L 277.263 96.333 Q 277.263 93.073 273.025 91.606 L 273.025 91.606 L 273.025 91.606 Q 268.787 90.139 259.17 88.509 L 259.17 88.509 L 259.17 88.509 Q 247.597 86.553 240.18 84.271 L 240.18 84.271 L 240.18 84.271 Q 232.764 81.989 227.222 76.528 L 227.222 76.528 L 227.222 76.528 Q 221.68 71.068 221.68 61.288 L 221.68 61.288 L 221.68 61.288 Q 221.68 45.477 233.661 38.794 L 233.661 38.794 L 233.661 38.794 Q 245.641 32.111 264.875 32.111 L 264.875 32.111 Z " fill="rgb(0,0,0)"/><path d=" M 491.608 32.111 L 491.608 32.111 Q 506.604 32.111 514.102 40.424 L 514.102 40.424 L 514.102 40.424 Q 521.6 48.737 521.6 64.385 L 521.6 64.385 L 521.6 120.131 L 489.163 120.131 L 489.163 68.297 L 489.163 68.297 Q 489.163 62.755 486.311 59.414 L 486.311 59.414 L 486.311 59.414 Q 483.458 56.072 478.242 56.072 L 478.242 56.072 L 478.242 56.072 Q 472.211 56.072 468.462 59.984 L 468.462 59.984 L 468.462 59.984 Q 464.713 63.896 464.713 69.601 L 464.713 69.601 L 464.713 120.131 L 432.276 120.131 L 432.276 34.067 L 458.845 34.067 L 460.964 47.107 L 460.964 47.107 Q 466.017 40.261 474.248 36.186 L 474.248 36.186 L 474.248 36.186 Q 482.48 32.111 491.608 32.111 L 491.608 32.111 Z " fill="rgb(0,0,0)"/><path d=" M 646.947 23.961 L 614.51 23.961 L 614.51 1.956 L 646.947 1.956 L 646.947 23.961 Z " fill="rgb(97,100,167)"/></g></svg>